<?xml version="1.0" standalone="no"?>
<!DOCTYPE svg PUBLIC "-//W3C//DTD SVG 20010904//EN"
 "http://www.w3.org/TR/2001/REC-SVG-20010904/DTD/svg10.dtd">
<svg version="1.0" xmlns="http://www.w3.org/2000/svg"
 width="283.000000pt" height="283.000000pt" viewBox="0 0 283.000000 283.000000"
 preserveAspectRatio="xMidYMid meet">

<g transform="translate(0.000000,283.000000) scale(0.100000,-0.100000)"
fill="#000000" stroke="none">
<path d="M1178 2200 c-109 -19 -235 -106 -280 -194 -30 -57 -35 -172 -14 -269
23 -102 11 -132 -73 -184 -33 -21 -60 -41 -61 -44 0 -4 20 -12 45 -19 25 -7
48 -16 50 -20 10 -15 -128 -131 -196 -165 l-69 -35 0 -50 c0 -59 14 -64 37
-15 15 32 20 35 60 35 24 0 43 2 43 5 0 4 -7 19 -15 35 -9 17 -11 30 -6 30 5
0 14 -13 20 -29 12 -27 15 -28 101 -35 71 -5 96 -3 119 9 43 21 55 19 37 -7
-9 -12 -16 -34 -16 -48 0 -20 7 -13 33 34 26 46 41 62 68 71 31 11 35 16 42
63 l8 51 32 -20 c40 -24 94 -24 130 -1 26 18 101 110 81 100 -97 -46 -156 -56
-222 -39 -54 15 -114 68 -141 126 -26 55 -26 64 -2 58 29 -7 88 15 107 40 11
14 14 16 11 5 -3 -9 2 -22 11 -30 15 -11 15 -11 6 2 -7 9 -8 23 -3 35 4 11 8
32 8 48 1 23 5 27 30 27 24 0 29 -5 35 -31 8 -41 55 -86 98 -94 74 -14 148 48
148 124 0 26 3 32 16 27 9 -4 22 -1 30 5 7 6 25 9 41 7 40 -4 52 -44 27 -93
-20 -40 -29 -48 -76 -65 l-28 -10 0 -139 c0 -111 3 -142 14 -148 18 -10 53
-178 62 -298 l6 -90 -44 -27 c-109 -67 -212 -216 -238 -344 -11 -54 -12 -54
-51 -55 -21 -1 -44 -2 -50 -3 -7 -1 -28 40 -48 89 -20 50 -55 119 -78 155
l-42 65 -10 -28 c-6 -16 -11 -31 -11 -34 0 -3 -12 -22 -26 -41 -28 -36 -77
-62 -119 -62 -25 0 -25 -1 -25 -83 0 -120 2 -122 131 -114 57 4 133 13 167 22
44 11 133 16 290 19 125 2 243 7 263 11 l37 7 4 127 c6 144 2 155 -83 246
l-47 50 -12 105 c-6 58 -18 138 -26 178 -8 41 -14 78 -12 83 4 12 143 -50 203
-91 28 -19 76 -60 107 -92 l57 -58 30 43 c65 96 80 242 33 332 -43 84 -108
126 -223 144 -83 14 -93 27 -82 106 4 33 7 97 7 141 -2 99 -32 176 -97 242
-55 57 -104 81 -196 98 -84 15 -96 15 -163 4z m20 -99 c13 -43 59 -93 102
-111 24 -10 29 -18 32 -56 3 -44 3 -44 -29 -44 -37 0 -98 -47 -107 -83 -4 -16
-13 -22 -35 -23 -24 -1 -32 5 -42 28 -6 15 -25 40 -42 54 -25 21 -39 25 -79
22 -45 -3 -48 -2 -48 22 0 38 43 121 81 159 36 37 101 70 135 71 16 0 24 -10
32 -39z m-99 -278 c16 -35 -2 -56 -24 -27 -8 10 -15 27 -15 37 0 26 25 20 39
-10z m310 1 c6 -14 9 -30 5 -35 -9 -14 -44 20 -44 43 0 27 25 22 39 -8z m-303
-81 c-10 -10 -19 5 -10 18 6 11 8 11 12 0 2 -7 1 -15 -2 -18z m314 11 c0 -8
-5 -12 -10 -9 -6 4 -8 11 -5 16 9 14 15 11 15 -7z"/>
<path d="M448 1834 c-38 -20 -36 -28 2 -9 17 9 30 18 30 20 0 7 -1 6 -32 -11z"/>
<path d="M364 1784 c-18 -14 -18 -15 4 -4 12 6 22 13 22 15 0 8 -5 6 -26 -11z"/>
<path d="M1495 1740 c-10 -11 -16 -22 -14 -24 2 -2 12 7 22 20 22 29 17 32 -8
4z"/>
<path d="M225 1700 c-3 -6 1 -7 9 -4 18 7 21 14 7 14 -6 0 -13 -4 -16 -10z"/>
<path d="M2430 1616 c0 -108 -34 -292 -80 -429 -72 -216 -180 -411 -318 -576
-54 -64 -71 -91 -58 -91 2 0 30 33 63 73 186 224 321 500 378 772 27 133 43
325 26 325 -7 0 -11 -26 -11 -74z"/>
<path d="M1160 1620 c-23 -7 -23 -8 -3 -9 12 -1 25 4 28 9 3 6 5 10 3 9 -2 -1
-14 -5 -28 -9z"/>
<path d="M1986 1149 c-53 -13 -106 -54 -106 -82 1 -21 2 -20 15 5 21 37 90 68
154 68 85 0 145 -43 145 -105 0 -41 -25 -72 -69 -84 -37 -10 -137 3 -178 24
-21 10 -27 11 -25 2 6 -18 97 -46 151 -47 105 -1 163 71 125 155 -25 55 -126
85 -212 64z"/>
<path d="M2420 961 c-80 -53 -112 -139 -69 -182 18 -18 30 -20 70 -17 59 6
135 43 162 81 31 40 28 94 -7 123 -39 35 -100 33 -156 -5z m144 -2 c31 -24 35
-72 10 -108 -20 -28 -128 -81 -166 -81 -31 0 -68 31 -68 57 0 32 51 102 93
127 51 31 96 33 131 5z"/>
<path d="M740 655 c0 -27 25 -95 34 -95 4 0 6 27 6 60 0 53 -2 60 -20 60 -15
0 -20 -7 -20 -25z"/>
</g>
</svg>
